<svg xmlns="http://www.w3.org/2000/svg" viewBox="0 0 64 64">
  <defs>
    <linearGradient id="bg" x1="8" x2="56" y1="7" y2="57" gradientUnits="userSpaceOnUse">
      <stop stop-color="#0d9488"/>
      <stop offset=".56" stop-color="#22c55e"/>
      <stop offset="1" stop-color="#f59e0b"/>
    </linearGradient>
  </defs>
  <rect width="64" height="64" rx="16" fill="url(#bg)"/>
  <path fill="#fff" d="M36.4 15.2c5.3 1.2 9.1 4.8 10.3 10H40c-.9-2.1-2.8-3.6-5.5-4.3v8.9h9.1v5.3h-9.1v3.3c0 2.2-.5 4.3-1.6 6.2 3-.9 5.1-2.7 6.4-5.4h7c-1.7 6.7-7.2 10.8-15.1 10.8-6.5 0-11.7-3-14.2-8.1l5.9-3.1c1.7 3.5 5 5.5 9 5.5 1.6 0 2.9-.3 3.9-.9-1.2-1.8-1.9-3.8-1.9-6.4v-1.9H18v-5.3h15.9v-9.5c-3.9.6-6.6 2.9-8.2 6.5l-6-3.1c2.5-5.6 7.7-8.9 14.2-9.3v-3.8h2.5v4.1Z"/>
</svg>
